<svg xmlns="http://www.w3.org/2000/svg" width="110" height="96" viewBox="0 0 110 96" fill="none"><path d="M109.364 48.6608C106.967 51.3151 104.369 53.7696 101.829 56.2811C100.859 57.223 99.6317 57.223 98.6613 56.2811C96.321 53.9979 94.0092 51.6861 91.7259 49.3172C90.8412 48.404 90.9268 47.0055 91.8116 46.1493C92.7249 45.2645 93.9806 45.236 94.9795 46.1207C95.4647 46.5488 95.8929 47.0055 96.3495 47.4621C96.7776 47.9188 97.2057 48.404 97.8336 49.1175C98.0048 47.1767 97.9192 45.607 97.7765 44.0373C96.0641 24.8295 81.9936 9.1322 63.0712 5.30777C43.2927 1.3121 23.1716 11.8435 15.1517 30.3663C15.009 30.7374 14.8663 31.0799 14.6951 31.4509C14.0672 32.7637 12.8399 33.2775 11.6412 32.7637C10.4425 32.25 9.95734 30.9657 10.4996 29.6243C11.9552 25.9711 13.8388 22.5748 16.1792 19.4353C23.9137 9.1322 34.1312 2.68204 46.9459 0.627124C69.7212 -3.02606 91.3549 9.56031 99.546 31.1084C101.544 36.3884 102.314 40.8978 102.571 49.0889C103.399 48.2612 104.141 47.5192 104.855 46.8057C106.653 45.0076 107.766 45.0362 109.364 46.9769C109.364 47.5192 109.364 48.09 109.364 48.6608Z" fill="#7DC52A"></path><path opacity="0.93" d="M97.7769 62.7883C96.5496 62.2746 95.3509 62.7883 94.6945 64.1012C94.5803 64.3295 94.4947 64.5578 94.4091 64.7861C91.5265 71.4361 87.3025 77.0585 81.6515 81.568C80.3672 82.5954 79.0828 83.5943 77.5131 84.422C77.5131 83.9083 77.5131 83.5658 77.5131 83.1948C77.5131 78.2858 77.5416 73.3768 77.5131 68.4679C77.456 63.9014 75.658 60.1626 72.0048 57.337C70.4065 56.1098 68.6085 55.3678 66.6106 54.854C75.5723 46.7771 74.1739 34.3334 67.4098 27.8547C60.5886 21.3189 49.8573 20.9479 42.8078 27.0841C39.2974 30.1665 37.1283 33.9909 36.586 38.6145C35.844 45.0075 38.013 50.3732 42.7508 54.7113C42.6081 54.8255 42.5795 54.8826 42.5224 54.9111C36.7858 56.1669 31.677 61.4754 31.8483 69.0957C31.9339 73.4624 31.8768 77.8577 31.8768 82.2244C31.8768 82.8808 31.8768 83.5373 31.8768 84.2508C20.6319 79.3418 9.24419 58.2218 11.6701 46.5487C12.6691 47.6047 13.5253 48.6037 14.4671 49.5169C15.4375 50.4017 16.7503 50.3161 17.6066 49.4028C18.4342 48.5751 18.5199 47.1766 17.6636 46.3204C15.3519 43.9515 13.0115 41.6112 10.6427 39.2994C9.70084 38.3861 8.50214 38.4147 7.58884 39.328C5.24852 41.6112 2.9082 43.923 0.653495 46.2633C-0.630829 47.6047 0.0826842 49.6882 1.88074 50.0878C2.82257 50.2875 3.53609 49.8594 4.16398 49.2315C5.02019 48.3753 5.87641 47.5191 6.90387 46.4917C6.81825 48.8891 6.90387 51.0011 7.13219 53.0845C7.36052 55.1965 7.73154 57.3085 8.24527 59.3634C14.1817 83.2233 37.4422 98.8635 61.7302 95.1818C74.4307 93.241 84.7624 87.0763 92.6396 76.9158C95.2368 73.5766 97.3202 69.8949 98.89 65.9563C99.4608 64.5863 98.947 63.302 97.7769 62.7883ZM41.0383 40.9548C41.0383 33.5057 47.2316 27.3124 54.6807 27.3124C62.1298 27.3124 68.3516 33.4772 68.3516 40.9263C68.3801 48.4324 62.1298 54.6542 54.6522 54.6257C47.2031 54.6257 41.0383 48.4324 41.0383 40.9548ZM72.2331 87.3617C60.5315 92.3563 48.8299 92.3277 37.1568 87.3046C36.7287 87.1048 36.5289 86.8765 36.5289 86.3628C36.5575 80.1409 36.5004 73.9191 36.586 67.6973C36.6431 63.4733 40.4104 59.6488 44.6344 59.3064C44.9769 59.2778 45.3479 59.2207 45.6904 59.2207C48.7157 59.2207 51.741 59.2207 54.7663 59.2207C54.7663 59.2493 54.7663 59.2778 54.7663 59.2778C58.077 59.2778 61.3877 59.1636 64.6984 59.3064C69.1793 59.5061 72.861 63.4733 72.8895 67.9541C72.9466 74.0618 72.8895 80.198 72.9181 86.3057C72.8895 86.8765 72.7468 87.1334 72.2331 87.3617Z" fill="#7DC52A"></path></svg>