<svg xmlns="http://www.w3.org/2000/svg" width="53" height="113" viewBox="0 0 53 113" fill="none"><path d="M29.1192 0.455811C30.5995 0.788892 32.1539 0.973938 33.5973 1.45506C43.3677 4.45279 49.6592 10.8924 52.2129 20.7738C55.0256 31.6175 50.1033 43.4974 40.592 49.3818C39.2597 50.196 37.8533 50.011 37.1132 48.9377C36.373 47.8645 36.632 46.3471 37.8533 45.5329C40.666 43.6454 43.0346 41.3879 44.8851 38.5012C49.4742 31.3954 49.2521 21.3659 44.2189 14.4823C39.3707 7.85763 32.7831 4.82288 24.6041 5.304C14.8337 5.93316 6.3586 13.8901 5.02627 23.6605C3.87899 32.2466 6.83972 39.1673 13.6494 44.4966C14.3156 45.0148 15.0557 45.4589 15.2778 46.3471C15.5369 47.3833 15.2778 48.3086 14.3896 48.9377C13.4273 49.6039 12.4651 49.4929 11.5399 48.8637C9.65241 47.5314 7.91298 46.051 6.43262 44.3116C1.58442 38.5382 -0.599111 31.8765 0.141071 24.4007C0.955271 16.0366 5.02627 9.48603 12.021 4.78587C15.4258 2.49131 19.2008 1.12197 23.3088 0.677865C23.4568 0.677865 23.6048 0.640856 23.6418 0.455811C25.4553 0.455811 27.2687 0.455811 29.1192 0.455811Z" fill="#7DC52A"></path><path d="M26.4539 13.298C27.8232 13.2609 28.8595 14.2972 28.8965 15.8146C28.9335 17.2949 27.8973 18.5162 26.5649 18.5532C25.2326 18.5903 24.1223 17.406 24.1223 15.9256C24.0853 14.4082 25.0846 13.335 26.4539 13.298Z" fill="#7DC52A"></path><path d="M28.8603 37.9461C28.8603 39.4265 27.787 40.6108 26.4177 40.6108C25.0853 40.5737 24.0861 39.4635 24.0491 37.9831C24.0491 36.4287 25.0483 35.3555 26.4917 35.3555C27.898 35.3925 28.8603 36.4657 28.8603 37.9461Z" fill="#7DC52A"></path><path d="M18.9046 21.662C17.5353 21.699 16.1659 20.3667 16.1289 18.9974C16.1289 17.7021 17.1282 16.6288 18.4235 16.6288C19.7928 16.5918 21.1621 17.9241 21.1992 19.2935C21.2732 20.5518 20.1999 21.625 18.9046 21.662Z" fill="#7DC52A"></path><path d="M34.0783 21.6619C32.783 21.6619 31.7098 20.5887 31.7468 19.2933C31.7468 17.924 33.1531 16.5917 34.5225 16.5917C35.8178 16.5917 36.854 17.6649 36.854 18.9603C36.817 20.3296 35.4477 21.6619 34.0783 21.6619Z" fill="#7DC52A"></path><path d="M16.1667 34.8743C16.1667 33.5419 17.6101 32.1356 18.9054 32.1726C20.1267 32.2096 21.2369 33.3569 21.2369 34.5782C21.2369 35.9105 19.7566 37.3539 18.4613 37.3169C17.203 37.2798 16.1297 36.1326 16.1667 34.8743Z" fill="#7DC52A"></path><path d="M36.8173 34.9113C36.8173 36.1696 35.707 37.3169 34.4857 37.3169C33.1904 37.3169 31.7471 35.8735 31.7471 34.5412C31.7471 33.3199 32.8943 32.1726 34.1156 32.1726C35.411 32.1726 36.8173 33.579 36.8173 34.9113Z" fill="#7DC52A"></path><path d="M15.3887 29.286C13.9084 29.286 12.7981 28.2497 12.7981 26.9174C12.7981 25.548 14.0194 24.4748 15.4998 24.5118C16.9431 24.5488 18.0904 25.6221 18.0904 26.9174C18.0904 28.3237 16.9431 29.323 15.3887 29.286Z" fill="#7DC52A"></path><path d="M37.5196 29.2859C36.0022 29.2859 34.929 28.3237 34.892 26.9913C34.8549 25.659 36.0392 24.5117 37.5196 24.5117C38.963 24.5117 40.1843 25.659 40.1472 26.9913C40.1102 28.3237 39.037 29.2859 37.5196 29.2859Z" fill="#7DC52A"></path><path d="M26.5276 29.2859C25.0473 29.2859 23.937 28.3237 23.9 26.9913C23.863 25.659 25.0843 24.5117 26.4906 24.5117C27.86 24.5117 29.0443 25.622 29.0813 26.9173C29.1183 28.2496 27.971 29.2859 26.5276 29.2859Z" fill="#7DC52A"></path><path d="M46.8084 62.4461C43.6626 62.4461 40.5539 62.4091 37.4081 62.4461C36.7789 62.4461 36.4829 62.261 36.2238 61.6689C33.9292 56.2656 31.3016 51.0473 28.859 45.718C28.3779 44.7187 27.7487 43.9045 26.5274 43.9045C25.2321 43.8675 24.5659 44.6817 24.0848 45.718C21.6422 51.0473 18.9776 56.2656 16.72 61.6689C16.461 62.261 16.1649 62.4461 15.5357 62.4461C12.39 62.4091 9.28119 62.4091 6.13542 62.4461C3.98889 62.4461 3.06366 63.4453 3.32273 65.5919C3.65581 68.4786 4.06291 71.3653 4.433 74.215C5.17318 80.0994 5.91336 85.9469 6.69055 91.8313C7.46775 97.7157 8.24494 103.637 9.02213 109.522C9.28119 111.446 10.0584 112.223 11.9829 112.223C16.831 112.223 21.6422 112.223 26.4904 112.223C31.4126 112.223 36.2978 112.223 41.22 112.223C42.8114 112.223 43.6996 111.409 43.9217 109.855C44.0697 108.781 44.2178 107.708 44.3658 106.635C45.254 99.6402 46.1422 92.6825 47.0675 85.6878C47.9187 78.9892 48.8069 72.2905 49.6581 65.5919C49.9172 63.4823 48.9549 62.4461 46.8084 62.4461ZM20.3469 65.3698C22.0863 60.8917 24.2699 56.5986 26.3054 52.2316C26.3424 52.1946 26.4164 52.1576 26.5644 52.0835C27.6747 54.4151 28.822 56.7467 29.8953 59.0783C30.7094 60.8177 31.2646 62.7052 32.2268 64.3336C33.9292 67.2203 31.6347 71.2542 28.4889 72.2165C24.825 73.4008 20.939 71.1432 20.1989 67.3683C20.0878 66.7391 20.0878 66.073 20.3469 65.3698ZM44.5879 67.9974C43.4406 76.5836 42.2933 85.2067 41.183 93.7928C40.6279 97.9748 40.1098 102.157 39.5916 106.339C39.4806 107.19 39.2215 107.523 38.2593 107.523C34.3363 107.449 30.4134 107.486 26.4904 107.486C22.5304 107.486 18.5705 107.449 14.6105 107.523C13.8333 107.523 13.5372 107.375 13.4262 106.561C12.9451 102.601 12.427 98.641 11.8718 94.681C11.7608 93.9778 11.9829 93.8298 12.649 93.9408C16.757 94.644 20.569 93.9038 24.1218 91.7573C26.4534 90.3139 29.007 89.7958 31.7457 90.1659C33.7442 90.425 35.0025 89.5367 35.0395 87.9453C35.0765 86.65 34.2623 85.6508 32.93 85.4657C29.007 84.8366 25.3061 85.5028 21.9383 87.5382C19.0886 89.2777 16.1279 89.8698 12.8711 89.1666C11.6868 88.9076 10.9836 88.4635 10.8356 87.0201C10.2434 81.5798 9.46624 76.1395 8.76306 70.6991C8.65204 69.8109 8.504 68.8857 8.35596 67.9974C8.28194 67.5163 8.35596 67.2573 8.94811 67.2943C10.8726 67.3313 12.7971 67.3313 14.7215 67.2943C15.4617 67.2573 15.4247 67.7754 15.5357 68.1825C16.2019 71.9574 18.3114 74.6221 21.7162 76.3245C28.0818 79.5443 36.2608 75.3623 37.3711 68.3305C37.4821 67.5533 37.7412 67.2203 38.5924 67.2573C40.3318 67.3313 42.0712 67.2943 43.8107 67.2573C44.4398 67.2203 44.6619 67.3313 44.5879 67.9974Z" fill="#7DC52A"></path></svg>