<svg xmlns="http://www.w3.org/2000/svg" width="108" height="107" viewBox="0 0 108 107" fill="none"><path d="M0.0280762 77.062C0.396019 77.4866 0.339412 77.9111 0.0280762 78.3357C0.0280762 77.9111 0.0280762 77.4866 0.0280762 77.062Z" fill="#7DC52A"></path><path d="M0.0280762 80.2319C0.339412 80.6565 0.367715 81.081 0.0280762 81.5056C0.0280762 81.081 0.0280762 80.6565 0.0280762 80.2319Z" fill="#7DC52A"></path><path opacity="0.96" d="M105.515 94.0156C98.0425 86.5436 90.5987 79.0998 83.1267 71.6277C82.8153 71.3164 82.4191 71.1183 82.4757 70.4956C82.7021 68.7125 82.8719 66.9294 83.0701 65.1463C83.7493 59.1177 84.4569 53.1174 85.1362 47.0888C85.7589 41.4848 86.3532 35.8807 87.0325 30.2767C87.5986 25.6066 85.4475 23.0594 80.7492 23.0594C78.3151 23.0594 75.9093 23.0594 73.3337 23.0594C74.1545 20.7951 75.0036 18.7007 75.7395 16.5213C76.0226 15.6722 76.5037 15.1061 77.2396 14.5967C82.5606 10.889 87.8816 7.18123 93.1743 3.4452C94.3065 2.65271 94.5329 1.66209 93.8819 0.75639C93.2309 -0.149314 92.212 -0.262527 91.1082 0.529964C85.4192 4.49242 79.7303 8.48318 74.0413 12.4739C73.4753 12.8702 73.079 13.3513 72.8526 14.0306C71.862 16.8043 70.7864 19.5498 69.7958 22.3235C69.5977 22.8612 69.3713 23.0877 68.7769 23.0877C59.3236 23.0594 49.8703 23.0594 40.3888 23.0877C39.8227 23.0877 39.5963 22.9178 39.4264 22.4084C38.917 20.8234 38.266 19.3233 37.4169 17.8799C35.3791 14.3703 33.1431 11.0305 29.0108 9.70022C28.4731 9.5304 28.6995 9.21906 28.8127 8.87943C29.4637 7.23784 29.8599 5.51134 29.8599 3.72823C29.8882 1.97343 28.6146 0.388448 26.973 0.190325C23.2653 -0.234223 17.8027 1.52058 15.9347 6.30383C15.5951 7.20953 15.3404 8.14354 15.0007 9.10585C14.5196 8.7096 14.095 8.34166 13.6422 7.97372C11.9723 6.61516 10.2458 5.31321 8.15134 4.66224C6.84939 4.26599 5.77386 4.83206 5.49083 5.96419C5.2078 7.03971 5.80217 7.7756 7.16072 8.17184C9.22686 8.79452 10.7269 10.238 12.4534 11.6531C5.80217 12.8419 3.39639 18.3327 3.62282 23.1443C3.70773 24.984 5.2361 26.3708 7.16072 26.3708C8.94383 26.3708 10.6703 26.0029 12.2836 25.3236C12.8497 25.0689 13.0195 25.1821 13.2459 25.7482C13.9535 27.7011 15.0856 29.371 16.6989 30.7012C19.6991 33.1919 23.0105 35.0316 26.7183 36.1921C27.1145 36.3053 27.5391 36.3336 27.624 37.0129C28.1334 42.0225 28.6995 47.0322 29.2939 52.0419C29.4071 52.891 29.2373 53.4571 28.5014 53.9948C27.8221 54.5043 27.256 55.1552 26.7466 55.8345C26.3503 56.344 26.1805 56.3157 25.7277 55.8911C23.1238 53.5137 20.0953 52.2683 16.5291 52.24C13.3308 52.2117 10.2175 52.6646 7.10412 53.2872C5.77386 53.542 4.86816 54.2495 4.55682 55.4949C4.21719 56.7968 4.67004 57.9007 5.74556 58.7498C7.07581 59.797 8.37776 60.8442 9.73632 61.9197C4.75495 63.7877 2.23596 67.6936 0.877401 72.5335C0.509459 73.8071 0.283033 75.109 0 76.3827C0 76.5808 0 76.8072 0 77.0054C0.16982 77.4299 0.16982 77.8545 0 78.279C0 78.9017 0 79.5527 0 80.1753C0.16982 80.5999 0.16982 81.0244 0 81.449C0 81.8735 0 82.2981 0 82.7226C0.226426 82.7792 0.198123 82.9774 0.226426 83.1472C0.509459 85.6096 1.07552 87.987 1.92462 90.3079C4.07567 96.0535 7.27394 101.007 12.5949 104.318C16.3027 106.639 20.2651 107.46 24.454 105.761C24.737 105.648 24.9635 105.648 25.2465 105.761C28.7561 107.12 32.2091 106.837 35.5772 105.195C36.03 104.969 36.2848 104.997 36.681 105.337C37.7282 106.271 38.9736 106.639 40.3604 106.639C51.3704 106.639 62.3804 106.639 73.3904 106.639C74.7772 106.639 76.0508 106.243 77.0981 105.337C77.466 104.997 77.7773 104.997 78.2302 105.167C80.2397 105.846 82.2776 106.271 84.4003 106.469C92.1837 107.205 99.0897 105.082 105.175 100.242C107.637 98.346 107.722 96.2233 105.515 94.0156ZM14.8875 15.7854C14.3781 20.4272 12.0855 22.2952 7.7834 22.8329C7.18903 22.9178 7.16072 22.6065 7.18903 22.1537C7.58527 18.0497 9.39668 16.0118 13.0478 15.2194C13.3591 15.1627 13.6705 15.1344 13.9818 15.0495C14.7177 14.8797 15.0856 15.0778 14.8875 15.7854ZM89.0137 82.7509C92.1554 85.8926 95.2122 88.9493 98.2689 92.0061C96.2594 93.9307 92.8913 95.3459 89.0137 95.8836C89.0137 91.5249 89.0137 87.1662 89.0137 82.7509ZM85.1079 82.8075C85.1362 82.7792 85.2211 82.7792 85.3909 82.7509C85.3909 84.0529 85.3909 85.3548 85.3909 86.6285C85.3909 89.4871 85.3909 92.3174 85.3909 95.1761C85.3909 95.5157 85.5891 95.9402 84.8532 95.827C81.7964 95.3742 79.051 94.2703 76.5603 92.4306C76.249 92.2042 75.8244 92.0344 76.3339 91.4966C79.2774 88.638 82.1927 85.6945 85.1079 82.8075ZM73.3054 89.289C71.211 86.77 70.0223 83.8264 69.5128 80.5716C69.4279 80.0621 69.6543 80.0055 70.0789 80.0055C74.2394 80.0055 78.3717 80.0055 82.6172 80.0055C79.4472 83.1472 76.3905 86.2039 73.3054 89.289ZM82.8153 76.411C78.4 76.411 74.2111 76.411 70.0223 76.411C69.4845 76.411 69.4562 76.1846 69.5128 75.76C69.9657 72.7599 71.0412 70.0145 72.8526 67.5521C73.1922 67.0709 73.3903 66.986 73.8715 67.4389C76.7867 70.4107 79.702 73.2976 82.8153 76.411ZM71.7488 27.3898C71.9469 26.8237 72.2299 26.6539 72.796 26.6539C74.2394 26.7105 75.6829 26.6539 77.1264 26.6539C78.5698 26.6539 80.0133 26.6256 81.4568 26.6539C82.9286 26.6822 83.6078 27.3898 83.4663 28.8615C83.0984 32.5409 82.6738 36.2204 82.2493 39.8715C82.221 40.2111 82.221 40.5508 81.7964 40.7206C79.1925 41.9093 76.7584 43.5226 73.8998 44.0887C71.3808 44.5698 68.9467 44.3717 66.5126 43.6075C65.9183 43.4094 65.8617 43.2113 66.0598 42.6452C67.9844 37.5789 69.8807 32.4843 71.7488 27.3898ZM67.5316 26.6539C67.7014 26.6539 67.8712 26.6822 68.1542 26.6822C67.3335 28.9181 66.5127 31.0692 65.7202 33.2485C64.7579 35.8807 63.7672 38.5129 62.8332 41.1451C62.6068 41.7395 62.437 41.9376 61.7294 41.7395C57.4839 40.5225 53.295 40.8338 49.3043 42.7584C44.7192 44.9661 40.2189 44.9095 35.747 42.532C34.8696 42.0791 34.0205 41.5697 33.0865 41.2584C31.8695 40.8621 31.5015 40.0696 31.3883 38.8809C31.1053 35.6826 30.709 32.5126 30.3411 29.3144C30.143 27.4464 30.7656 26.6256 32.5204 26.6256C44.1814 26.6539 55.8423 26.6539 67.5316 26.6539ZM18.5103 10.4644C19.1896 6.0208 21.3973 4.18108 25.5861 3.72823C25.9824 3.69993 26.3786 3.64332 26.2937 4.26599C25.7843 8.51148 23.9446 10.889 19.3028 11.3984C18.482 11.6814 18.3971 11.2286 18.5103 10.4644ZM26.7749 29.9654C26.8881 30.7861 26.973 31.6352 27.0862 32.5693C23.6898 31.3805 20.6897 29.7106 18.199 27.1916C17.548 26.5407 17.1235 25.7199 16.7555 24.8708C16.2461 23.6254 16.0196 22.5216 16.897 21.2479C17.9443 19.6913 18.4254 17.8516 18.482 15.9552C18.5103 15.3043 18.6518 15.0212 19.3594 14.9929C21.5388 14.9363 23.5483 14.2004 25.388 13.04C25.8409 12.757 26.2088 12.6721 26.7466 12.8136C28.6712 13.2381 30.2845 14.1438 31.5581 15.6722C33.3978 17.8799 34.813 20.3139 35.8319 23.0877C34.6432 23.0877 33.5394 23.0877 32.4638 23.0877C28.5014 23.0877 26.2088 25.8897 26.7749 29.9654ZM29.8882 57.7308C30.0581 59.3441 30.1713 60.7027 30.3694 62.0612C30.426 62.5707 30.2562 62.8254 29.8316 63.0236C28.8976 63.4198 28.1051 64.0991 27.0013 64.4104C27.2843 61.9197 28.2183 59.8253 29.8882 57.7308ZM9.14195 56.91C9.08535 56.8534 9.05704 56.7402 8.97213 56.5987C12.1987 55.8628 15.397 55.5798 18.5952 56.1176C20.4633 56.4289 22.1048 57.3912 23.4351 58.7215C24.6521 59.9102 24.3408 61.1272 22.7558 61.7216C20.8878 62.4009 18.9066 62.4575 17.0669 61.7782C14.1233 60.7027 11.4911 59.0328 9.14195 56.91ZM34.162 101.997C31.4732 103.242 28.7561 103.526 26.039 102.167C25.3314 101.799 24.6521 101.686 23.9446 102.082C21.0293 103.639 18.1707 103.299 15.3687 101.856C11.4628 99.8178 8.88722 96.5063 6.90599 92.6854C4.75495 88.5248 3.65112 84.0812 3.62282 79.8074C3.65112 76.0147 4.21719 72.7599 5.91538 69.7597C8.49098 65.2029 13.0761 63.7311 17.8027 65.9671C19.4443 66.7313 20.9161 67.8917 22.7841 68.1748C23.2087 68.2314 23.0955 68.571 23.1238 68.8257C23.1238 69.5616 23.1238 70.2975 23.1238 71.0617C23.1521 72.1372 23.803 72.8165 24.7937 72.8731C25.8126 72.9297 26.6334 72.2504 26.69 71.1749C26.7466 70.439 26.7183 69.7031 26.69 68.9389C26.69 68.4578 26.7466 68.203 27.3126 68.0898C28.3599 67.8917 29.3222 67.4672 30.2279 66.9011C30.5958 66.6747 30.8789 66.5332 30.9638 67.2124C31.5864 73.1278 32.2374 79.0432 32.8884 84.9586C33.4827 90.2796 34.0771 95.6006 34.6998 100.922C34.7564 101.459 34.6715 101.771 34.162 101.997ZM72.2582 103.101C61.7294 103.101 51.2289 103.101 40.7001 103.101C39.0019 103.101 38.4924 102.592 38.2943 100.865C37.4735 93.5628 36.6244 86.2322 35.8036 78.93C34.9828 71.5994 34.2186 64.2972 33.3978 56.9667C32.9733 53.0891 32.5487 49.1833 32.0959 45.3057C32.0676 45.1642 32.011 45.0227 32.2091 44.8812C34.0771 45.7586 35.9168 46.8058 37.9547 47.3435C42.2568 48.4757 46.389 48.0794 50.3798 46.1831C53.8611 44.5132 57.4273 44.1736 61.1916 45.3623C58.8142 51.8155 56.4367 58.212 54.0592 64.6368C50.3515 74.7128 46.6155 84.7888 42.9077 94.8647C42.7379 95.3176 42.5115 95.7704 42.6247 96.2799C42.8228 97.129 43.3606 97.6667 44.2097 97.7516C45.1154 97.8649 45.7947 97.3837 46.106 96.5346C46.9551 94.2703 47.8042 92.0061 48.625 89.7418C53.8045 75.7317 58.984 61.6933 64.1352 47.6549C64.4182 46.919 64.6446 46.7492 65.4371 47.0322C70.1072 48.6172 74.6357 48.221 79.051 46.0982C79.8435 45.702 80.636 45.3057 81.4002 44.9095C81.4568 44.8812 81.5134 44.9095 81.6266 44.9095C80.7775 52.4381 79.9567 59.9385 79.1076 67.4955C78.6264 67.4106 78.4566 67.0426 78.2019 66.7879C75.9093 64.4953 73.6168 62.2028 71.2959 59.9102C68.975 57.6176 66.9372 57.6742 64.8994 60.2215C60.1444 66.1369 57.9934 72.958 58.6727 80.4867C59.5501 90.1664 64.2767 97.5818 72.5695 102.705C72.6828 102.79 72.796 102.846 72.9375 102.931C72.8243 103.242 72.5129 103.101 72.2582 103.101ZM92.7781 102.45C79.334 105.394 66.456 97.5818 63.0597 84.251C61.0501 76.3544 62.7483 69.1371 67.6731 62.6273C68.1542 61.9763 68.4656 61.9197 68.975 62.5424C69.4845 63.1651 70.4185 63.6462 70.5883 64.2972C70.7581 64.9765 69.8241 65.5708 69.3713 66.2218C60.6822 79.1281 68.5222 97.0158 83.8909 99.2517C89.9761 100.157 95.4952 98.714 100.363 94.9496C100.816 94.5817 101.071 94.5817 101.467 95.0062C102.09 95.6572 102.826 96.2516 103.533 96.9025C100.278 99.7612 96.7405 101.573 92.7781 102.45Z" fill="#7DC52A"></path><path d="M42.6533 81.7603C41.6344 81.732 40.8702 80.9395 40.8985 79.9206C40.9268 78.9866 41.7476 78.1658 42.6533 78.1658C43.6156 78.1658 44.4647 79.0149 44.4647 79.9772C44.493 80.9961 43.6722 81.7886 42.6533 81.7603Z" fill="#7DC52A"></path><path d="M42.7095 71.0899C42.7095 72.0806 41.8887 72.9014 40.8981 72.9014C39.9358 72.9014 39.1716 72.1372 39.115 71.1749C39.0867 70.1842 39.8792 69.3351 40.8415 69.3068C41.8321 69.2785 42.7095 70.1276 42.7095 71.0899Z" fill="#7DC52A"></path><path d="M12.6517 68.5144C13.6423 68.5427 14.2084 68.939 14.4914 69.7314C14.7744 70.5522 14.5763 71.373 13.8687 71.6561C12.0573 72.4486 11.6611 74.0618 11.2082 75.7034C10.3874 78.6753 10.4723 81.6188 11.3214 84.5624C11.4346 84.9586 11.6045 85.3831 11.5478 85.7794C11.4346 86.6568 10.9252 87.2795 9.99117 87.3927C9.08547 87.5059 8.32128 87.1096 8.09485 86.2322C6.70799 81.1094 6.39666 76.0431 9.08547 71.1749C9.93456 69.7314 11.1516 68.7974 12.6517 68.5144Z" fill="#7DC52A"></path><path d="M28.5299 17.7666C29.4922 17.7949 30.3413 18.7006 30.2847 19.6346C30.2281 20.597 29.3507 21.3894 28.3601 21.3611C27.3978 21.3045 26.6902 20.5403 26.6902 19.5497C26.7185 18.5025 27.511 17.7383 28.5299 17.7666Z" fill="#7DC52A"></path><path d="M24.9351 24.9557C24.8785 25.9463 24.0294 26.6822 23.0105 26.6539C21.9915 26.5973 21.284 25.8048 21.3406 24.7576C21.3972 23.7953 22.218 23.0311 23.152 23.0877C24.1426 23.116 24.9917 24.0217 24.9351 24.9557Z" fill="#7DC52A"></path><path d="M43.559 51.5324C40.1343 51.5324 37.304 54.3911 37.304 57.7875C37.304 61.2122 40.1343 64.0142 43.559 64.0142C46.9837 64.0142 49.7574 61.2688 49.7574 57.8724C49.814 54.3345 47.0403 51.5041 43.559 51.5324ZM43.5873 60.3914C42.1438 60.3914 40.9551 59.2592 40.9268 57.8441C40.8985 56.4006 42.1438 55.1836 43.6156 55.1836C45.0874 55.2119 46.2195 56.344 46.2195 57.7875C46.1912 59.2592 45.059 60.3631 43.5873 60.3914Z" fill="#7DC52A"></path></svg>