<svg xmlns="http://www.w3.org/2000/svg" width="106" height="107" viewBox="0 0 106 107" fill="none"><path d="M37.1304 48.6941C35.9636 48.6941 34.9912 47.7773 34.9635 46.6382C34.9357 45.4992 35.9358 44.5269 37.0748 44.5269C38.2417 44.5269 39.214 45.4992 39.1862 46.6382C39.1862 47.7495 38.2417 48.6663 37.1304 48.6941Z" fill="#7DC52A"></path><path d="M86.3862 73.2805C83.6359 71.3081 80.7188 71.5025 77.774 72.9749C72.2455 75.7253 66.717 78.4479 61.1885 81.1982C60.6885 81.4483 60.4662 81.615 60.1884 80.8649C59.2994 78.3645 57.5769 76.6699 54.9933 75.9198C51.7984 74.9752 48.6035 73.9751 45.3809 73.0583C43.0195 72.3915 40.6025 71.947 38.1577 71.8081C33.1015 71.5303 28.4343 72.7249 24.1837 75.5308C22.9058 76.392 21.5445 77.031 19.9609 77.0588C19.4053 77.0866 19.1275 76.9477 18.8219 76.4476C17.7384 74.614 16.1271 73.6417 13.9602 73.6417C11.2654 73.6417 8.54278 73.6417 5.84798 73.6417C2.51422 73.6417 0.0694535 75.9198 0.0416721 79.2258C-0.0138907 85.6988 -0.0138907 92.1719 0.0416721 98.6727C0.0694535 101.868 2.34753 104.173 5.54239 104.257C8.45943 104.34 11.3487 104.34 14.2657 104.229C16.9328 104.146 18.9608 102.34 19.4609 99.7284C19.572 99.1728 19.7665 99.0617 20.2665 99.0894C22.1557 99.1728 24.0726 99.2839 25.9339 99.7284C31.3791 101.006 36.6576 102.784 42.0471 104.285C44.7142 105.035 47.409 105.757 50.076 106.479C51.3261 106.479 52.5763 106.479 53.8265 106.479C57.6325 105.729 60.8274 103.729 63.8833 101.479C65.9947 99.9229 68.1617 98.4227 70.3008 96.8947C75.5793 93.1164 80.9133 89.3937 86.164 85.5321C90.4423 82.365 90.5535 76.2531 86.3862 73.2805ZM15.377 88.9492C15.377 92.0608 15.377 95.1723 15.377 98.2838C15.377 99.5895 14.9325 100.034 13.6546 100.034C11.0987 100.034 8.54278 100.034 5.98689 100.034C4.76451 100.034 4.32001 99.5895 4.32001 98.3393C4.32001 92.033 4.32001 85.7544 4.32001 79.448C4.32001 78.2534 4.79229 77.7811 6.04245 77.7811C8.59834 77.7811 11.1542 77.7811 13.7101 77.7811C14.9047 77.7811 15.4048 78.2812 15.4048 79.5036C15.4048 82.6429 15.377 85.8099 15.377 88.9492ZM84.4415 81.3649C84.1082 81.8094 83.6914 82.1706 83.2192 82.4762C75.3292 88.088 67.4671 93.7276 59.5772 99.3395C57.6881 100.673 55.6878 101.84 53.3264 102.173C51.1872 102.507 49.2147 101.895 47.2145 101.34C40.7136 99.5617 34.2961 97.4503 27.7397 95.7835C25.3505 95.1723 22.9058 94.8945 20.461 94.8389C19.7942 94.8111 19.572 94.6722 19.5998 93.9777C19.6553 91.9774 19.6276 89.9494 19.6276 87.9491C19.6276 86.0044 19.6553 84.0597 19.6276 82.1428C19.6276 81.5038 19.7387 81.226 20.461 81.1982C22.3779 81.0871 24.2115 80.5593 25.795 79.448C31.1568 75.642 37.0465 75.2252 43.214 76.8088C46.77 77.7256 50.2982 78.809 53.8265 79.8647C55.8267 80.4759 56.8824 82.4484 56.3268 84.3653C55.7989 86.1989 53.8542 87.2546 51.8818 86.6989C48.1313 85.6433 44.4086 84.532 40.6581 83.4485C39.9358 83.2541 39.2412 83.1151 38.5467 83.5319C37.8244 83.9486 37.4632 84.6153 37.491 85.421C37.5466 86.31 37.9911 87.0323 38.8801 87.2824C43.1584 88.5325 47.3812 89.8938 51.6873 90.9495C54.7432 91.6996 58.0492 89.9216 59.6328 87.0879C59.9106 86.6156 60.2162 86.2822 60.7162 86.06C66.9948 82.9485 73.2456 79.8369 79.5242 76.7254C80.2466 76.3643 80.9689 76.0864 81.7745 76.0587C83.1358 76.0309 84.2193 76.5032 84.8583 77.7533C85.525 79.0591 85.2472 80.2537 84.4415 81.3649Z" fill="#7DC52A"></path><path d="M103.5 24.1631C101 24.1631 98.4993 24.1353 96.0268 24.1909C95.36 24.1909 95.1378 24.0519 95.1655 23.3574C95.3045 20.6348 94.9433 17.9678 94.1376 15.3842C90.3594 2.96587 78.6356 -2.97935 66.8841 1.52124C63.5225 2.79918 60.6888 4.855 58.1607 7.35533C57.6329 7.88318 57.2995 7.85539 56.7717 7.32755C54.9103 5.49398 52.9101 3.88266 50.6042 2.63249C43.1032 -1.34025 34.1298 -0.812399 28.1846 4.18825C22.3227 9.10556 19.7391 15.5786 19.7946 23.1352C19.7946 24.0519 19.5446 24.1909 18.7389 24.1631C16.322 24.1353 13.905 24.1631 11.4602 24.1631C9.9878 24.1631 9.12658 24.941 9.0988 26.1911C9.07102 27.5246 9.93224 28.3025 11.4602 28.3025C14.155 28.3025 16.8776 28.3303 19.5724 28.2747C20.2391 28.2747 20.5447 28.4136 20.7114 29.0804C22.0449 34.1922 25.0175 38.2205 28.9625 41.6098C29.9071 42.4154 31.0461 42.3877 31.8518 41.582C32.6574 40.7763 32.6574 39.4706 31.824 38.6094C31.1294 37.8871 30.3793 37.2203 29.6848 36.498C27.5734 34.3866 26.0732 31.9141 25.0731 29.0804C24.8231 28.3858 24.9898 28.2747 25.6565 28.2747C27.1845 28.3025 28.7125 28.3303 30.2404 28.2747C30.9072 28.2469 31.2961 28.4414 31.6851 28.997C33.1019 30.9695 34.5466 32.9142 35.9912 34.8311C37.2136 36.4702 38.7138 36.4424 39.8806 34.8033C40.7974 33.5254 41.6864 32.2752 42.5476 30.9695C42.9365 30.4139 43.1032 30.4139 43.381 31.0251C44.3256 32.9976 45.3535 34.97 46.3259 36.9425C46.7426 37.8037 47.326 38.4149 48.3539 38.4427C49.3818 38.4427 49.993 37.8315 50.4375 36.9703C50.7987 36.3035 51.1598 35.6368 51.521 34.97C53.4935 31.3307 55.4382 27.7191 57.4662 23.9686C57.6885 24.3853 57.8551 24.6631 58.0218 24.9687C60.161 28.9137 62.3002 32.8586 64.4393 36.8036C64.9116 37.6926 65.495 38.4427 66.6341 38.4149C67.7731 38.3871 68.3009 37.637 68.7732 36.7203C69.8289 34.5811 70.8846 32.4697 71.9959 30.275C73.0516 31.803 74.0517 33.2476 75.0796 34.6922C76.2742 36.4147 77.7744 36.4424 79.0246 34.7756C80.5247 32.7753 81.9972 30.775 83.4974 28.7748C83.6918 28.497 83.8585 28.2192 84.303 28.2469C86.2477 28.2747 88.1646 28.2469 90.1927 28.2469C90.026 28.747 89.9149 29.1915 89.776 29.6082C88.5536 32.8586 86.47 35.4423 83.9974 37.8315C75.3852 46.0826 66.8285 54.3614 58.2996 62.6681C57.744 63.2237 57.4384 63.2793 56.855 62.6959C55.7438 61.5013 54.5492 60.4178 53.3823 59.2787C50.7431 56.7229 48.1039 54.167 45.4369 51.6389C44.2145 50.4998 42.4642 50.8054 41.9364 52.2501C41.5752 53.278 41.9364 54.1114 42.7143 54.8337C46.9926 58.9176 51.2432 63.057 55.4937 67.1687C57.1884 68.8078 57.9385 68.8078 59.6609 67.1409C69.051 58.0564 78.4411 48.9996 87.8313 39.9151C90.9983 36.8592 93.1653 33.2476 94.3599 29.0248C94.5266 28.3858 94.7766 28.2192 95.4156 28.2192C98.1382 28.2469 100.889 28.2469 103.611 28.2192C105 28.2192 105.973 27.3579 106 26.1633C105.945 25.0521 104.945 24.1631 103.5 24.1631ZM91.0261 23.3018C91.0261 23.9408 90.8594 24.1909 90.1371 24.1909C87.8313 24.1353 85.4976 24.2186 83.164 24.1631C82.1083 24.1353 81.386 24.552 80.8026 25.3577C79.8024 26.7467 78.6912 28.108 77.7466 29.5249C77.1632 30.4139 76.9132 30.1639 76.4409 29.4693C75.5241 28.0525 74.524 26.6634 73.5516 25.3021C72.357 23.6074 70.579 23.7741 69.6345 25.6355C68.6065 27.6357 67.6064 29.6638 66.5785 31.7196C66.1618 31.4696 66.0784 31.0806 65.9117 30.775C63.8281 26.9412 61.7168 23.0796 59.6609 19.218C59.1886 18.329 58.6608 17.5511 57.494 17.5511C56.3549 17.5511 55.7993 18.3012 55.327 19.1902C53.0767 23.3852 50.7987 27.5524 48.465 31.8863C47.3816 29.7471 46.3259 27.6913 45.3257 25.6355C44.8812 24.7465 44.27 24.1909 43.2421 24.1909C42.3809 24.1909 41.8253 24.6909 41.3808 25.3299C40.2417 26.969 39.1027 28.6081 37.8803 30.3861C36.5746 28.6359 35.3244 26.9968 34.102 25.3299C33.5186 24.5242 32.7963 24.1631 31.824 24.1909C29.4626 24.2186 27.1011 24.1909 24.7675 24.2186C24.3786 24.2186 24.073 24.2742 24.0174 23.6908C23.4618 16.4398 27.5734 8.27212 33.9631 5.63288C40.3251 2.99365 46.187 4.32716 51.5765 8.35546C52.7156 9.21668 53.6879 10.2446 54.7714 11.1614C56.6883 12.7449 58.2441 12.7449 60.1888 11.1892C61.4667 10.1335 62.6335 8.91109 63.967 7.96652C69.4678 4.10491 75.413 2.96587 81.636 5.96626C86.47 8.2999 88.9981 12.5782 90.3594 17.6067C90.915 19.4125 91.0817 21.3572 91.0261 23.3018Z" fill="#7DC52A"></path></svg>